<mxfile host="Electron" modified="2023-05-05T16:39:43.240Z" agent="Mozilla/5.0 (Windows NT 10.0; Win64; x64) AppleWebKit/537.36 (KHTML, like Gecko) draw.io/21.1.2 Chrome/106.0.5249.199 Electron/21.4.3 Safari/537.36" etag="PZHbtDV9Vg2keV1d7YYz" version="21.1.2" type="device">
  <diagram name="Page-1" id="2YBvvXClWsGukQMizWep">
    <mxGraphModel dx="1036" dy="606" grid="1" gridSize="10" guides="1" tooltips="1" connect="1" arrows="1" fold="1" page="1" pageScale="1" pageWidth="700" pageHeight="500" math="0" shadow="0">
      <root>
        <mxCell id="0" />
        <mxCell id="1" parent="0" />
        <mxCell id="Ak385ffSBU5j9h3RIEhT-10" value="" style="group" vertex="1" connectable="0" parent="1">
          <mxGeometry x="25" y="49" width="650" height="402" as="geometry" />
        </mxCell>
        <mxCell id="Dt7eZ9A1HmHeJQcLphXK-2" value="" style="shape=umlLifeline;perimeter=lifelinePerimeter;whiteSpace=wrap;html=1;container=1;dropTarget=0;collapsible=0;recursiveResize=0;outlineConnect=0;portConstraint=eastwest;newEdgeStyle={&quot;edgeStyle&quot;:&quot;elbowEdgeStyle&quot;,&quot;elbow&quot;:&quot;vertical&quot;,&quot;curved&quot;:0,&quot;rounded&quot;:0};participant=umlActor;fillColor=#fad7ac;strokeColor=#b46504;" parent="Ak385ffSBU5j9h3RIEhT-10" vertex="1">
          <mxGeometry x="18" width="23.67" height="402" as="geometry" />
        </mxCell>
        <mxCell id="Dt7eZ9A1HmHeJQcLphXK-3" value="" style="html=1;points=[];perimeter=orthogonalPerimeter;outlineConnect=0;targetShapes=umlLifeline;portConstraint=eastwest;newEdgeStyle={&quot;edgeStyle&quot;:&quot;elbowEdgeStyle&quot;,&quot;elbow&quot;:&quot;vertical&quot;,&quot;curved&quot;:0,&quot;rounded&quot;:0};fillColor=#fad7ac;strokeColor=#b46504;" parent="Dt7eZ9A1HmHeJQcLphXK-2" vertex="1">
          <mxGeometry x="6.83" y="60" width="10" height="330" as="geometry" />
        </mxCell>
        <mxCell id="Dt7eZ9A1HmHeJQcLphXK-4" value="System" style="shape=umlLifeline;perimeter=lifelinePerimeter;whiteSpace=wrap;html=1;container=1;dropTarget=0;collapsible=0;recursiveResize=0;outlineConnect=0;portConstraint=eastwest;newEdgeStyle={&quot;edgeStyle&quot;:&quot;elbowEdgeStyle&quot;,&quot;elbow&quot;:&quot;vertical&quot;,&quot;curved&quot;:0,&quot;rounded&quot;:0};fillColor=#b1ddf0;strokeColor=#10739e;" parent="Ak385ffSBU5j9h3RIEhT-10" vertex="1">
          <mxGeometry x="188" width="100" height="402" as="geometry" />
        </mxCell>
        <mxCell id="Dt7eZ9A1HmHeJQcLphXK-5" value="" style="html=1;points=[];perimeter=orthogonalPerimeter;outlineConnect=0;targetShapes=umlLifeline;portConstraint=eastwest;newEdgeStyle={&quot;edgeStyle&quot;:&quot;elbowEdgeStyle&quot;,&quot;elbow&quot;:&quot;vertical&quot;,&quot;curved&quot;:0,&quot;rounded&quot;:0};fillColor=#b1ddf0;strokeColor=#10739e;" parent="Dt7eZ9A1HmHeJQcLphXK-4" vertex="1">
          <mxGeometry x="45" y="70" width="10" height="320" as="geometry" />
        </mxCell>
        <mxCell id="Dt7eZ9A1HmHeJQcLphXK-6" value="Buyer" style="shape=umlLifeline;perimeter=lifelinePerimeter;whiteSpace=wrap;html=1;container=1;dropTarget=0;collapsible=0;recursiveResize=0;outlineConnect=0;portConstraint=eastwest;newEdgeStyle={&quot;edgeStyle&quot;:&quot;elbowEdgeStyle&quot;,&quot;elbow&quot;:&quot;vertical&quot;,&quot;curved&quot;:0,&quot;rounded&quot;:0};fillColor=#f8cecc;strokeColor=#b85450;" parent="Ak385ffSBU5j9h3RIEhT-10" vertex="1">
          <mxGeometry x="438" width="105" height="402" as="geometry" />
        </mxCell>
        <mxCell id="Dt7eZ9A1HmHeJQcLphXK-7" value="" style="html=1;points=[];perimeter=orthogonalPerimeter;outlineConnect=0;targetShapes=umlLifeline;portConstraint=eastwest;newEdgeStyle={&quot;edgeStyle&quot;:&quot;elbowEdgeStyle&quot;,&quot;elbow&quot;:&quot;vertical&quot;,&quot;curved&quot;:0,&quot;rounded&quot;:0};fillColor=#f8cecc;strokeColor=#b85450;" parent="Dt7eZ9A1HmHeJQcLphXK-6" vertex="1">
          <mxGeometry x="48" y="100" width="10" height="290" as="geometry" />
        </mxCell>
        <mxCell id="Dt7eZ9A1HmHeJQcLphXK-10" value="" style="edgeStyle=elbowEdgeStyle;fontSize=12;html=1;endArrow=blockThin;endFill=1;rounded=0;fillColor=#fad7ac;strokeColor=#b46504;" parent="Ak385ffSBU5j9h3RIEhT-10" edge="1">
          <mxGeometry width="160" relative="1" as="geometry">
            <mxPoint x="38" y="80" as="sourcePoint" />
            <mxPoint x="228" y="80" as="targetPoint" />
          </mxGeometry>
        </mxCell>
        <mxCell id="Dt7eZ9A1HmHeJQcLphXK-11" value="updateInfo()" style="edgeLabel;html=1;align=center;verticalAlign=middle;resizable=0;points=[];" parent="Dt7eZ9A1HmHeJQcLphXK-10" vertex="1" connectable="0">
          <mxGeometry x="0.0761" y="2" relative="1" as="geometry">
            <mxPoint as="offset" />
          </mxGeometry>
        </mxCell>
        <mxCell id="Dt7eZ9A1HmHeJQcLphXK-13" value="" style="edgeStyle=elbowEdgeStyle;fontSize=12;html=1;endArrow=blockThin;endFill=1;rounded=0;fillColor=#fad7ac;strokeColor=#b46504;" parent="Ak385ffSBU5j9h3RIEhT-10" edge="1">
          <mxGeometry width="160" relative="1" as="geometry">
            <mxPoint x="38" y="160" as="sourcePoint" />
            <mxPoint x="228" y="161" as="targetPoint" />
          </mxGeometry>
        </mxCell>
        <mxCell id="Dt7eZ9A1HmHeJQcLphXK-14" value="submitForm()" style="edgeLabel;html=1;align=center;verticalAlign=middle;resizable=0;points=[];" parent="Dt7eZ9A1HmHeJQcLphXK-13" vertex="1" connectable="0">
          <mxGeometry x="0.0761" y="2" relative="1" as="geometry">
            <mxPoint as="offset" />
          </mxGeometry>
        </mxCell>
        <mxCell id="Dt7eZ9A1HmHeJQcLphXK-24" value="form" style="html=1;verticalAlign=bottom;endArrow=open;dashed=1;endSize=8;edgeStyle=elbowEdgeStyle;elbow=vertical;curved=0;rounded=0;fillColor=#b1ddf0;strokeColor=#10739e;" parent="Ak385ffSBU5j9h3RIEhT-10" edge="1">
          <mxGeometry relative="1" as="geometry">
            <mxPoint x="231.67000000000002" y="124" as="sourcePoint" />
            <mxPoint x="41.67" y="124" as="targetPoint" />
            <Array as="points">
              <mxPoint x="191.67000000000002" y="124" />
            </Array>
          </mxGeometry>
        </mxCell>
        <mxCell id="Dt7eZ9A1HmHeJQcLphXK-25" value="" style="edgeStyle=elbowEdgeStyle;fontSize=12;html=1;endArrow=blockThin;endFill=1;rounded=0;fillColor=#b1ddf0;strokeColor=#10739e;" parent="Ak385ffSBU5j9h3RIEhT-10" edge="1">
          <mxGeometry width="160" relative="1" as="geometry">
            <mxPoint x="250" y="187" as="sourcePoint" />
            <mxPoint x="480" y="188" as="targetPoint" />
          </mxGeometry>
        </mxCell>
        <mxCell id="Dt7eZ9A1HmHeJQcLphXK-26" value="updateInfo()" style="edgeLabel;html=1;align=center;verticalAlign=middle;resizable=0;points=[];" parent="Dt7eZ9A1HmHeJQcLphXK-25" vertex="1" connectable="0">
          <mxGeometry x="0.0761" y="2" relative="1" as="geometry">
            <mxPoint as="offset" />
          </mxGeometry>
        </mxCell>
        <mxCell id="Ak385ffSBU5j9h3RIEhT-5" value="isValidInfo:=&lt;br&gt;checkValidInfo()" style="html=1;align=left;spacingLeft=2;endArrow=block;rounded=0;edgeStyle=orthogonalEdgeStyle;curved=0;rounded=0;fillColor=#f8cecc;strokeColor=#b85450;" edge="1" parent="Ak385ffSBU5j9h3RIEhT-10">
          <mxGeometry relative="1" as="geometry">
            <mxPoint x="500" y="201" as="sourcePoint" />
            <Array as="points">
              <mxPoint x="530" y="231" />
            </Array>
            <mxPoint x="505" y="231" as="targetPoint" />
          </mxGeometry>
        </mxCell>
        <mxCell id="Ak385ffSBU5j9h3RIEhT-6" value="isValidInfo" style="shape=umlFrame;whiteSpace=wrap;html=1;pointerEvents=0;width=80;height=30;movable=1;resizable=1;rotatable=1;deletable=1;editable=1;locked=0;connectable=1;" vertex="1" parent="Ak385ffSBU5j9h3RIEhT-10">
          <mxGeometry y="242" width="650" height="140" as="geometry" />
        </mxCell>
        <mxCell id="Ak385ffSBU5j9h3RIEhT-7" value="Successfully updating" style="html=1;verticalAlign=bottom;endArrow=open;dashed=1;endSize=8;edgeStyle=elbowEdgeStyle;elbow=vertical;curved=0;rounded=0;fillColor=#b1ddf0;strokeColor=#10739e;" edge="1" parent="Ak385ffSBU5j9h3RIEhT-10">
          <mxGeometry relative="1" as="geometry">
            <mxPoint x="231.67000000000002" y="295.31" as="sourcePoint" />
            <mxPoint x="41.67" y="295.31" as="targetPoint" />
            <Array as="points">
              <mxPoint x="191.67000000000002" y="295.31" />
            </Array>
          </mxGeometry>
        </mxCell>
        <mxCell id="Ak385ffSBU5j9h3RIEhT-8" value="" style="line;strokeWidth=1;fillColor=none;align=left;verticalAlign=middle;spacingTop=-1;spacingLeft=3;spacingRight=3;rotatable=0;labelPosition=right;points=[];portConstraint=eastwest;strokeColor=inherit;dashed=1;" vertex="1" parent="Ak385ffSBU5j9h3RIEhT-10">
          <mxGeometry x="10" y="318" width="630" height="8" as="geometry" />
        </mxCell>
        <mxCell id="Ak385ffSBU5j9h3RIEhT-9" value="Invalid info format!" style="html=1;verticalAlign=bottom;endArrow=open;dashed=1;endSize=8;edgeStyle=elbowEdgeStyle;elbow=vertical;curved=0;rounded=0;fillColor=#b1ddf0;strokeColor=#10739e;" edge="1" parent="Ak385ffSBU5j9h3RIEhT-10">
          <mxGeometry relative="1" as="geometry">
            <mxPoint x="230" y="359" as="sourcePoint" />
            <mxPoint x="40" y="359" as="targetPoint" />
            <Array as="points">
              <mxPoint x="200" y="359" />
            </Array>
          </mxGeometry>
        </mxCell>
      </root>
    </mxGraphModel>
  </diagram>
</mxfile>
